<svg xmlns="http://www.w3.org/2000/svg" viewBox="0 0 226.72 50.05"><defs><style>.cls-1{fill:#c30d23;}.cls-2{fill:#fff;}.cls-3{fill:#f39519;}</style></defs><title>アセット 1</title><g id="レイヤー_2" data-name="レイヤー 2"><g id="レイヤー_1-2" data-name="レイヤー 1"><path class="cls-1" d="M38.69,46.33A1.18,1.18,0,0,1,38,46.2L24.29,39,10.56,46.19a1.17,1.17,0,0,1-1.25-.09,1.17,1.17,0,0,1-.47-1.16l2.62-15.29L.36,18.82a1.17,1.17,0,0,1-.3-1.21,1.19,1.19,0,0,1,1-.8l15.36-2.23L23.24.66A1.19,1.19,0,0,1,24.3,0a1.18,1.18,0,0,1,1.06.66l6.87,13.92,15.36,2.23a1.18,1.18,0,0,1,.65,2L37.12,29.66,39.74,45a1.18,1.18,0,0,1-1,1.38"/><path class="cls-2" d="M30.51,18.7a1.39,1.39,0,1,1-1.31-1.46,1.39,1.39,0,0,1,1.31,1.46"/><path class="cls-2" d="M21.24,18.51A1.39,1.39,0,1,1,19.93,17a1.39,1.39,0,0,1,1.31,1.47"/><path class="cls-2" d="M25.88,25.44a12.36,12.36,0,0,1-1.45.09c-4.28,0-8.12-2.3-9.34-5.61a.46.46,0,0,1,.85-.31c1.09,3,4.58,5,8.48,5,3.64,0,6.95-1.83,8.23-4.53a.46.46,0,0,1,.82.39,9.49,9.49,0,0,1-7.6,5"/><path class="cls-2" d="M30.75,50.05a1.61,1.61,0,0,1-.75-.19l-5.71-3-5.71,3a1.43,1.43,0,0,1-.75.18,1.61,1.61,0,0,1-.95-.31,1.59,1.59,0,0,1-.64-1.58l1.09-6.35-4.62-4.5a1.6,1.6,0,0,1-.4-1.65,1.62,1.62,0,0,1,1.29-1.09L20,33.64l2.85-5.78a1.61,1.61,0,0,1,2.89,0l2.85,5.78,6.38.93a1.61,1.61,0,0,1,.89,2.75l-4.61,4.5,1.09,6.35a1.62,1.62,0,0,1-.64,1.57,1.6,1.6,0,0,1-.79.3h-.16m-.53-1.52h0Zm-11.84,0h0m5.92-4.09,5.74,3-1.09-6.39,4.64-4.53-6.42-.93L24.3,29.79,21.43,35.6,15,36.54l4.64,4.53-1.09,6.39Zm10.07-8.66h0Zm-10.55-7h0Z"/><path class="cls-3" d="M30.8,49a.53.53,0,0,1-.3-.06l-6.21-3.26-6.21,3.26a.53.53,0,0,1-.56,0,.53.53,0,0,1-.21-.52l1.18-6.91-5-4.9a.53.53,0,0,1-.13-.55.54.54,0,0,1,.43-.36l6.94-1,3.1-6.29a.54.54,0,0,1,.48-.3.53.53,0,0,1,.48.3l3.1,6.29,6.94,1a.53.53,0,0,1,.43.36.54.54,0,0,1-.14.55l-5,4.89,1.18,6.91a.54.54,0,0,1-.21.52.52.52,0,0,1-.26.1"/><path class="cls-2" d="M27.44,37.24a.7.7,0,1,1-.66-.74.7.7,0,0,1,.66.74"/><path class="cls-2" d="M22.75,37.14a.7.7,0,1,1-.66-.74.7.7,0,0,1,.66.74"/><path class="cls-2" d="M25.1,40.66a6.31,6.31,0,0,1-.73,0,4.93,4.93,0,0,1-4.73-2.84.23.23,0,1,1,.43-.16,4.46,4.46,0,0,0,4.29,2.54,4.58,4.58,0,0,0,4.17-2.29.23.23,0,0,1,.42.2,4.81,4.81,0,0,1-3.85,2.51"/><path class="cls-1" d="M60.49,20.32H56.66V16.09h3.83V11.87h4.46v4.22h2.87v4.23H65v3.3s2.23-.16,7.31-.16c3.63,0,8.72,3.14,8.72,7A6,6,0,0,1,75,36.72c-3.25,0-5.85-2.44-7.69-5.09l3.79-2.28s2.76,4.33,4.82,2.17-2-4.33-4.71-4.33a19.27,19.27,0,0,0-6.07.92s-.54,9.1-6.12,9.1a4.63,4.63,0,0,1-4.71-4.44c0-2.92,3-5.47,6.21-7.42Z"/><path class="cls-1" d="M74.09,15.55l-2.44,2.71s4.71,3,6.28,5.14l3.68-3.14s-3.68-3.74-7.53-4.71"/><path class="cls-1" d="M83.25,23.89l5.42-2.82L87.2,17.88l4.55-2.06,1.68,3.25A27.07,27.07,0,0,1,98,17.61l.6-5.25,5.09,1-.27,3.41s9.8-.43,9.8,7.15c0,2.33-1.25,5.36-5.9,5.36s-9.48-2.71-9.48-2.71l1.84-3.73s6.71,3.68,8.39,1.73c.7-1.19.76-2.87-2.49-4-1.14-.27-5.47-.81-10.56,2.87l5.74,13.05-5.31,2.06L90.18,25.43,85.3,27.79Z"/><path class="cls-1" d="M115.31,22.32l4,3.9s8.45-5.8,14.84-5.8c1.46,0,3.14,1.09,3.14,2.6s-1.89,5.2-12.67,9.59l3.74,3.47s14.4-5.52,14.4-12.94c0-2.11-1.3-7.26-8.61-7-9.1.27-18.84,6.23-18.84,6.23"/><path class="cls-1" d="M203.84,14.42l-3.74,3.05s6.1,4.88,6.48,6.56L211,20.22a28.37,28.37,0,0,0-7.17-5.8"/><path class="cls-1" d="M223.37,15s-6.79,15.41-23.26,18.84l2.36,4.65S220,35.7,226.72,20.67Z"/><path class="cls-1" d="M196.34,17.54a27.63,27.63,0,0,1-.43,4.23,26.6,26.6,0,0,1-11.18,18l-4.33-3.12a22,22,0,0,0,10.06-14.9H179v3.67h-5.44v-7.9h8v-6h5.34v6Z"/><path class="cls-1" d="M169.29,15.86H153.9v4h9.87s-1.34,11.59-10.4,17l4.33,2.94s9.56-8.54,11.17-19.94a24.39,24.39,0,0,0,.44-4"/><path class="cls-1" d="M155.3,11.29a20.26,20.26,0,0,1-8.87,12.16l3.93,2.84a24.28,24.28,0,0,0,9.92-15Z"/><path class="cls-1" d="M157.85,23.15l-2.49,4c2.65,1.07,3.83,2.7,5.6,4l3-4c-1.88-1.48-3.46-3-6.16-4"/></g></g></svg>