<svg xmlns="http://www.w3.org/2000/svg" viewBox="0 0 48.59 50.05"><defs><style>.cls-1{fill:#c30d23;}.cls-2{fill:#fff;}.cls-3{fill:#f39519;}</style></defs><title>アセット 2</title><g id="レイヤー_2" data-name="レイヤー 2"><g id="レイヤー_1-2" data-name="レイヤー 1"><path class="cls-1" d="M38.69,46.33A1.18,1.18,0,0,1,38,46.2L24.29,39,10.56,46.19a1.17,1.17,0,0,1-1.25-.09,1.17,1.17,0,0,1-.47-1.16l2.62-15.29L.36,18.82a1.17,1.17,0,0,1-.3-1.21,1.19,1.19,0,0,1,1-.8l15.36-2.23L23.24.66A1.19,1.19,0,0,1,24.3,0a1.18,1.18,0,0,1,1.06.66l6.87,13.92,15.36,2.23a1.18,1.18,0,0,1,.65,2L37.12,29.66,39.74,45a1.18,1.18,0,0,1-1,1.38"/><path class="cls-2" d="M30.51,18.7a1.39,1.39,0,1,1-1.31-1.46,1.39,1.39,0,0,1,1.31,1.46"/><path class="cls-2" d="M21.24,18.51A1.39,1.39,0,1,1,19.93,17a1.39,1.39,0,0,1,1.31,1.47"/><path class="cls-2" d="M25.88,25.44a12.36,12.36,0,0,1-1.45.09c-4.28,0-8.12-2.3-9.34-5.61a.46.46,0,0,1,.85-.31c1.09,3,4.58,5,8.48,5,3.64,0,6.95-1.83,8.23-4.53a.46.46,0,0,1,.82.39,9.49,9.49,0,0,1-7.6,5"/><path class="cls-2" d="M30.75,50.05a1.61,1.61,0,0,1-.75-.19l-5.71-3-5.71,3a1.43,1.43,0,0,1-.75.18,1.61,1.61,0,0,1-.95-.31,1.59,1.59,0,0,1-.64-1.58l1.09-6.35-4.62-4.5a1.6,1.6,0,0,1-.4-1.65,1.62,1.62,0,0,1,1.29-1.09L20,33.64l2.85-5.78a1.61,1.61,0,0,1,2.89,0l2.85,5.78,6.38.93a1.61,1.61,0,0,1,.89,2.75l-4.61,4.5,1.09,6.35a1.62,1.62,0,0,1-.64,1.57,1.6,1.6,0,0,1-.79.3h-.16m-.53-1.52h0Zm-11.84,0h0m5.92-4.09,5.74,3-1.09-6.39,4.64-4.53-6.42-.93L24.3,29.79,21.43,35.6,15,36.54l4.64,4.53-1.09,6.39Zm10.07-8.66h0Zm-10.55-7h0Z"/><path class="cls-3" d="M30.8,49a.53.53,0,0,1-.3-.06l-6.21-3.26-6.21,3.26a.53.53,0,0,1-.56,0,.53.53,0,0,1-.21-.52l1.18-6.91-5-4.9a.53.53,0,0,1-.13-.55.54.54,0,0,1,.43-.36l6.94-1,3.1-6.29a.54.54,0,0,1,.48-.3.53.53,0,0,1,.48.3l3.1,6.29,6.94,1a.53.53,0,0,1,.43.36.54.54,0,0,1-.14.55l-5,4.89,1.18,6.91a.54.54,0,0,1-.21.52.52.52,0,0,1-.26.1"/><path class="cls-2" d="M27.44,37.24a.7.7,0,1,1-.66-.74.7.7,0,0,1,.66.74"/><path class="cls-2" d="M22.75,37.14a.7.7,0,1,1-.66-.74.7.7,0,0,1,.66.74"/><path class="cls-2" d="M25.1,40.66a6.31,6.31,0,0,1-.73,0,4.93,4.93,0,0,1-4.73-2.84.23.23,0,1,1,.43-.16,4.46,4.46,0,0,0,4.29,2.54,4.58,4.58,0,0,0,4.17-2.29.23.23,0,0,1,.42.2,4.81,4.81,0,0,1-3.85,2.51"/></g></g></svg>