<svg xmlns="http://www.w3.org/2000/svg" viewBox="0 0 791 125.32"><defs><style>.cls-1{fill:none;stroke:#9a9a9b;stroke-linecap:round;stroke-linejoin:round;stroke-width:3px;}.cls-2{fill:#9a9a9b;}</style></defs><title>アセット 36</title><g id="レイヤー_2" data-name="レイヤー 2"><g id="_5" data-name="5"><polyline class="cls-1" points="264.67 14.82 1.5 14.82 1.5 123.82 789.5 123.82 789.5 14.82 526.34 14.82"/><path class="cls-2" d="M297.77,2.75a13.64,13.64,0,0,0,1.38,0,2.75,2.75,0,1,1,2.77,2.82l-.27,0a25.73,25.73,0,0,1-3.37,8.07,21.79,21.79,0,0,1-6.22,6,26.67,26.67,0,0,1-4.75,2.47,9.19,9.19,0,0,0-2.2-3,20.32,20.32,0,0,0,5.47-2.55,17.31,17.31,0,0,0,7.57-10.9h-11.9a19.86,19.86,0,0,0-3.15.15V2.57a17.66,17.66,0,0,0,3.2.17Zm2.7,0a1.42,1.42,0,1,0,2.85,0,1.41,1.41,0,0,0-1.42-1.42A1.44,1.44,0,0,0,300.47,2.75Z"/><path class="cls-2" d="M317.67,1.27a19.31,19.31,0,0,0-.15,2.52l-.12,14.27a18,18,0,0,0,6.82-2.75,14.78,14.78,0,0,0,5.1-5.72,11.72,11.72,0,0,0,2.37,2.55A18.64,18.64,0,0,1,326.12,18a22.79,22.79,0,0,1-9.1,3.42,7.15,7.15,0,0,0-1.5.42l-1.6-1.92a8.81,8.81,0,0,0,.23-2.57l.1-13.5a12.21,12.21,0,0,0-.12-2.58Z"/><path class="cls-2" d="M342.17,14.87a78.25,78.25,0,0,1,16.6,3.95L357.7,22a45.81,45.81,0,0,0-8.85-2.8A69.5,69.5,0,0,0,341,17.72Zm2-7a78.51,78.51,0,0,1,13,2.9l-1,3.08a42.93,42.93,0,0,0-6.87-2A55,55,0,0,0,343,10.7Zm.38-6.9a83.21,83.21,0,0,1,13.52,2.7l-1,3.07a65.9,65.9,0,0,0-13.65-2.87Z"/><path class="cls-2" d="M379.87,6.85a11.64,11.64,0,0,0-.1,2c-.1,4.27-.77,6.67-2.47,8.85a14.44,14.44,0,0,1-6.45,4.5,8.83,8.83,0,0,0-2-2.85,11.51,11.51,0,0,0,4.37-2.12c2.55-2,3.35-4.17,3.35-8.9a6.35,6.35,0,0,0-.12-1.5ZM390,3.7a7,7,0,0,0-1,1.75,15.86,15.86,0,0,1-3.85,5,15.69,15.69,0,0,1-3,2.07,8.44,8.44,0,0,0-2.25-2.27A11.6,11.6,0,0,0,383.57,8a10.34,10.34,0,0,0,2.38-3.17H372.82a24,24,0,0,0-3.4.15V1.82a19.88,19.88,0,0,0,3.45.2h13a6.9,6.9,0,0,0,2.42-.22Z"/><path class="cls-2" d="M408.77,1.35a7.61,7.61,0,0,0-.65,1.8,148.38,148.38,0,0,1-4.95,14.25,98.91,98.91,0,0,0,10.4-1.27c-.28-.6-.57-1.15-1.17-2.27a31.16,31.16,0,0,0-2.37-4l2.82-1.1a58.53,58.53,0,0,1,6,11.57l-3,1.57a25.65,25.65,0,0,0-1.2-3.1l-.9.2c-2.52.52-6.67,1-14.15,1.77a13.68,13.68,0,0,0-2.27.3l-.45-3.37h.65c.5,0,1.1,0,2.15-.08,1.32-3.15,2.32-6,3.62-10.07A39.51,39.51,0,0,0,405.15.65Z"/><path class="cls-2" d="M446,4.92a4.71,4.71,0,0,0-.62,1.5,25.91,25.91,0,0,1-5.12,9.65,25.24,25.24,0,0,1-8.9,6.35,7.7,7.7,0,0,0-2.12-2.62,22.49,22.49,0,0,0,5.47-2.95A19.79,19.79,0,0,0,442,6.3l-7.52.13a24.47,24.47,0,0,1-5.85,6.4,6.65,6.65,0,0,0-2.42-2.15,19.23,19.23,0,0,0,6.47-7.25,9.33,9.33,0,0,0,1.27-3.3l3.42.67a5.12,5.12,0,0,0-.42.77,5,5,0,0,0-.33.7l-.33.65a5.87,5.87,0,0,1-.4.8c.33,0,.73,0,1.2,0l5.47-.08a4.42,4.42,0,0,0,1.82-.25Z"/><path class="cls-2" d="M475.19,8.85a11.51,11.51,0,0,0-.7,1.57,17.67,17.67,0,0,1-5.8,8.45,22.24,22.24,0,0,1-6.55,3.4,8.72,8.72,0,0,0-2-2.9,16.22,16.22,0,0,0,6.95-3.3,13,13,0,0,0,4-5.85H459a25.32,25.32,0,0,0-3.2.13v-3a17.72,17.72,0,0,0,3.25.17h11.9a10.94,10.94,0,0,0,2.82-.22ZM457.92,1.27a14.19,14.19,0,0,0,2.92.17h8.72a14.2,14.2,0,0,0,2.92-.17V4.35a19.26,19.26,0,0,0-2.87-.12H460.8a19.28,19.28,0,0,0-2.87.13Z"/><path class="cls-2" d="M502.54,21.74a48,48,0,0,0-7.67-7.42,29.7,29.7,0,0,1-9.52,7.22,10,10,0,0,0-2-2.77,20.61,20.61,0,0,0,5-2.75,24.09,24.09,0,0,0,8.4-10.17L497,5.2c-.4,0-.4,0-8.27.15a19.59,19.59,0,0,0-2.72.2l-.1-3.2a11,11,0,0,0,2.2.15h.6l8.8-.12a5.41,5.41,0,0,0,2.22-.27l1.65,1.7a4.81,4.81,0,0,0-.8,1.35,33.14,33.14,0,0,1-3.9,6.9,38.76,38.76,0,0,1,4.62,3.62c.63.55.63.55,3.65,3.47Z"/></g></g></svg>